# xmcd
#
# Track frame offsets: 
#        150
#        13228
#        24131
#        34624
#        44437
#        56463
#        68496
#        79700
#        90886
#        108458
#        121753
#        138088
#        148120
#        158387
#        169534
#        181009
#        192975
#        206065
#        220450
#        234798
#        246912
#        258109
#        277599
#        303099
#        322732
#        333669
#
# Disc length: 4791 seconds
#
# Revision: 1
# Processed by: cddbd v1.5.2PL0 Copyright (c) Steve Scherf et al.
# Submitted via: ExactAudioCopy v1.1
#
DISCID=4312b51a
DTITLE=John Lee Hooker - Akella Presents - Greatest Bluesmen - vol. 18
DTITLE=CD2
DYEAR=2017
DGENRE=Blues
TTITLE0=Drive Me Away
TTITLE1=No Shoes
TTITLE2=Dusty Road
TTITLE3=Run On
TTITLE4=I'm a Stranger
TTITLE5=I'll Know Tonight
TTITLE6=Bundle Up and Go
TTITLE7=Sunny Land
TTITLE8=Process
TTITLE9=Lost A Good Girl
TTITLE10=Thelma
TTITLE11=Onions
TTITLE12=Keep Your Hands To Your Self
TTITLE13=Send Me Your Pillow
TTITLE14=Let's Make It
TTITLE15=Love Is A Burning Thing
TTITLE16=Birmingham Blues
TTITLE17=Poor Me
TTITLE18=My Grinding Mill
TTITLE19=I Want To Hug You
TTITLE20=I Want To Ramble
TTITLE21=You're Wrong
TTITLE22=Country Boy
TTITLE23=Shake It Baby
TTITLE24=Money
TTITLE25=I'm So Worried Baby
EXTD=
EXTT0=
EXTT1=
EXTT2=
EXTT3=
EXTT4=
EXTT5=
EXTT6=
EXTT7=
EXTT8=
EXTT9=
EXTT10=
EXTT11=
EXTT12=
EXTT13=
EXTT14=
EXTT15=
EXTT16=
EXTT17=
EXTT18=
EXTT19=
EXTT20=
EXTT21=
EXTT22=
EXTT23=
EXTT24=
EXTT25=
PLAYORDER=
